# xmcd
#
# Track frame offsets:
#	150
#	19700
#	39791
#	56514
#	76097
#	97836
#	116843
#	137732
#	153045
#	165323
#	185266
#
# Disc length: 2699 seconds
#
# Revision: 1
# Processed by: cddbd v1.5PL3 Copyright (c) Steve Scherf et al.
# Submitted via: audiograbber 1.82.02
#
DISCID=700a890b
DTITLE=Patrick Verbeke - Echos d'Acadie
DYEAR=2004
DGENRE=Blues
TTITLE0=Coeurs solidaires
TTITLE1=Bluesy city
TTITLE2=Trop jeune pour savoir
TTITLE3=Faite pour moi
TTITLE4=Joe Leblanc
TTITLE5=Orage
TTITLE6=L'ordre du bon temps
TTITLE7=Evangelina
TTITLE8=Acadania
TTITLE9=Henry Membertou
TTITLE10=N'arrête pas de rêver
EXTD=Dixiefrog Records\nwww.bluesweb.com
EXTT0=
EXTT1=
EXTT2=
EXTT3=
EXTT4=
EXTT5=
EXTT6=
EXTT7=
EXTT8=
EXTT9=
EXTT10=
PLAYORDER=
